<?xml version="1.0" encoding="utf-8" standalone="no"?>
<!DOCTYPE svg PUBLIC "-//W3C//DTD SVG 1.1//EN"
  "http://www.w3.org/Graphics/SVG/1.1/DTD/svg11.dtd">
<svg xmlns:xlink="http://www.w3.org/1999/xlink" width="776.448pt" height="373.824pt" viewBox="0 0 776.448 373.824" xmlns="http://www.w3.org/2000/svg" version="1.1">
 <metadata>
  <rdf:RDF xmlns:dc="http://purl.org/dc/elements/1.1/" xmlns:cc="http://creativecommons.org/ns#" xmlns:rdf="http://www.w3.org/1999/02/22-rdf-syntax-ns#">
   <cc:Work>
    <dc:type rdf:resource="http://purl.org/dc/dcmitype/StillImage"/>
    <dc:date>2026-06-18T03:48:07.714902</dc:date>
    <dc:format>image/svg+xml</dc:format>
    <dc:creator>
     <cc:Agent>
      <dc:title>Matplotlib v3.10.9, https://matplotlib.org/</dc:title>
     </cc:Agent>
    </dc:creator>
   </cc:Work>
  </rdf:RDF>
 </metadata>
 <defs>
  <style type="text/css">*{stroke-linejoin: round; stroke-linecap: butt}</style>
 </defs>
 <g id="figure_1">
  <g id="patch_1">
   <path d="M 0 373.824 
L 776.448 373.824 
L 776.448 0 
L 0 0 
L 0 373.824 
z
" style="fill: none"/>
  </g>
  <g id="axes_1">
   <g id="patch_2">
    <path d="M 50.636736 328.525056 
L 440.043264 328.525056 
Q 443.091456 328.525056 443.091456 325.649664 
L 443.091456 209.915136 
Q 443.091456 207.039744 440.043264 207.039744 
L 50.636736 207.039744 
Q 47.588544 207.039744 47.588544 209.915136 
L 47.588544 325.649664 
Q 47.588544 328.525056 50.636736 328.525056 
L 50.636736 328.525056 
z
" clip-path="url(#pd5d220d7c0)" style="fill: none; stroke: #2563eb; stroke-width: 1.5; stroke-linejoin: miter"/>
   </g>
   <g id="patch_3">
    <path d="M 549.778176 328.525056 
L 725.811264 328.525056 
Q 728.859456 328.525056 728.859456 325.649664 
L 728.859456 209.915136 
Q 728.859456 207.039744 725.811264 207.039744 
L 549.778176 207.039744 
Q 546.729984 207.039744 546.729984 209.915136 
L 546.729984 325.649664 
Q 546.729984 328.525056 549.778176 328.525056 
L 549.778176 328.525056 
z
" clip-path="url(#pd5d220d7c0)" style="fill: none; stroke: #7c3aed; stroke-width: 1.7; stroke-linejoin: miter"/>
   </g>
   <g id="FillBetweenPolyCollection_1">
    <defs>
     <path id="mbd35f7f2ae" d="M 64.3536 -71.916994 
L 64.3536 -58.957056 
L 65.060578 -58.957056 
L 65.767556 -58.957056 
L 66.474534 -58.957056 
L 67.181513 -58.957056 
L 67.888491 -58.957056 
L 68.595469 -58.957056 
L 69.302447 -58.957056 
L 70.009425 -58.957056 
L 70.716403 -58.957056 
L 71.423381 -58.957056 
L 72.130359 -58.957056 
L 72.837338 -58.957056 
L 73.544316 -58.957056 
L 74.251294 -58.957056 
L 74.958272 -58.957056 
L 75.66525 -58.957056 
L 76.372228 -58.957056 
L 77.079206 -58.957056 
L 77.786184 -58.957056 
L 78.493163 -58.957056 
L 79.200141 -58.957056 
L 79.907119 -58.957056 
L 80.614097 -58.957056 
L 81.321075 -58.957056 
L 82.028053 -58.957056 
L 82.735031 -58.957056 
L 83.442009 -58.957056 
L 84.148988 -58.957056 
L 84.855966 -58.957056 
L 85.562944 -58.957056 
L 86.269922 -58.957056 
L 86.9769 -58.957056 
L 87.683878 -58.957056 
L 88.390856 -58.957056 
L 89.097834 -58.957056 
L 89.804813 -58.957056 
L 90.511791 -58.957056 
L 91.218769 -58.957056 
L 91.925747 -58.957056 
L 92.632725 -58.957056 
L 93.339703 -58.957056 
L 94.046681 -58.957056 
L 94.753659 -58.957056 
L 95.460638 -58.957056 
L 96.167616 -58.957056 
L 96.874594 -58.957056 
L 97.581572 -58.957056 
L 98.28855 -58.957056 
L 98.995528 -58.957056 
L 99.702506 -58.957056 
L 100.409484 -58.957056 
L 101.116463 -58.957056 
L 101.823441 -58.957056 
L 102.530419 -58.957056 
L 103.237397 -58.957056 
L 103.944375 -58.957056 
L 104.651353 -58.957056 
L 105.358331 -58.957056 
L 106.065309 -58.957056 
L 106.772288 -58.957056 
L 107.479266 -58.957056 
L 108.186244 -58.957056 
L 108.893222 -58.957056 
L 109.6002 -58.957056 
L 110.307178 -58.957056 
L 111.014156 -58.957056 
L 111.721134 -58.957056 
L 112.428113 -58.957056 
L 113.135091 -58.957056 
L 113.842069 -58.957056 
L 114.549047 -58.957056 
L 115.256025 -58.957056 
L 115.963003 -58.957056 
L 116.669981 -58.957056 
L 117.376959 -58.957056 
L 118.083938 -58.957056 
L 118.790916 -58.957056 
L 119.497894 -58.957056 
L 120.204872 -58.957056 
L 120.91185 -58.957056 
L 121.618828 -58.957056 
L 122.325806 -58.957056 
L 123.032784 -58.957056 
L 123.739763 -58.957056 
L 124.446741 -58.957056 
L 125.153719 -58.957056 
L 125.860697 -58.957056 
L 126.567675 -58.957056 
L 127.274653 -58.957056 
L 127.981631 -58.957056 
L 128.688609 -58.957056 
L 129.395588 -58.957056 
L 130.102566 -58.957056 
L 130.809544 -58.957056 
L 131.516522 -58.957056 
L 132.2235 -58.957056 
L 132.930478 -58.957056 
L 133.637456 -58.957056 
L 134.344434 -58.957056 
L 135.051412 -58.957056 
L 135.758391 -58.957056 
L 136.465369 -58.957056 
L 137.172347 -58.957056 
L 137.879325 -58.957056 
L 138.586303 -58.957056 
L 139.293281 -58.957056 
L 140.000259 -58.957056 
L 140.707237 -58.957056 
L 141.414216 -58.957056 
L 142.121194 -58.957056 
L 142.828172 -58.957056 
L 143.53515 -58.957056 
L 144.242128 -58.957056 
L 144.949106 -58.957056 
L 145.656084 -58.957056 
L 146.363063 -58.957056 
L 147.070041 -58.957056 
L 147.777019 -58.957056 
L 148.483997 -58.957056 
L 149.190975 -58.957056 
L 149.897953 -58.957056 
L 150.604931 -58.957056 
L 151.311909 -58.957056 
L 152.018888 -58.957056 
L 152.725866 -58.957056 
L 153.432844 -58.957056 
L 154.139822 -58.957056 
L 154.8468 -58.957056 
L 155.553778 -58.957056 
L 156.260756 -58.957056 
L 156.967734 -58.957056 
L 157.674712 -58.957056 
L 158.381691 -58.957056 
L 159.088669 -58.957056 
L 159.795647 -58.957056 
L 160.502625 -58.957056 
L 161.209603 -58.957056 
L 161.916581 -58.957056 
L 162.623559 -58.957056 
L 163.330537 -58.957056 
L 164.037516 -58.957056 
L 164.744494 -58.957056 
L 165.451472 -58.957056 
L 166.15845 -58.957056 
L 166.865428 -58.957056 
L 167.572406 -58.957056 
L 168.279384 -58.957056 
L 168.986363 -58.957056 
L 169.693341 -58.957056 
L 170.400319 -58.957056 
L 171.107297 -58.957056 
L 171.814275 -58.957056 
L 172.521253 -58.957056 
L 173.228231 -58.957056 
L 173.935209 -58.957056 
L 174.642188 -58.957056 
L 175.349166 -58.957056 
L 176.056144 -58.957056 
L 176.763122 -58.957056 
L 177.4701 -58.957056 
L 178.177078 -58.957056 
L 178.884056 -58.957056 
L 179.591034 -58.957056 
L 180.298012 -58.957056 
L 181.004991 -58.957056 
L 181.711969 -58.957056 
L 182.418947 -58.957056 
L 183.125925 -58.957056 
L 183.832903 -58.957056 
L 184.539881 -58.957056 
L 185.246859 -58.957056 
L 185.953837 -58.957056 
L 186.660816 -58.957056 
L 187.367794 -58.957056 
L 188.074772 -58.957056 
L 188.78175 -58.957056 
L 189.488728 -58.957056 
L 190.195706 -58.957056 
L 190.902684 -58.957056 
L 191.609663 -58.957056 
L 192.316641 -58.957056 
L 193.023619 -58.957056 
L 193.730597 -58.957056 
L 194.437575 -58.957056 
L 195.144553 -58.957056 
L 195.851531 -58.957056 
L 196.558509 -58.957056 
L 197.265488 -58.957056 
L 197.972466 -58.957056 
L 198.679444 -58.957056 
L 199.386422 -58.957056 
L 200.0934 -58.957056 
L 200.800378 -58.957056 
L 201.507356 -58.957056 
L 202.214334 -58.957056 
L 202.921312 -58.957056 
L 203.628291 -58.957056 
L 204.335269 -58.957056 
L 205.042247 -58.957056 
L 205.749225 -58.957056 
L 206.456203 -58.957056 
L 207.163181 -58.957056 
L 207.870159 -58.957056 
L 208.577137 -58.957056 
L 209.284116 -58.957056 
L 209.991094 -58.957056 
L 210.698072 -58.957056 
L 211.40505 -58.957056 
L 212.112028 -58.957056 
L 212.819006 -58.957056 
L 213.525984 -58.957056 
L 214.232963 -58.957056 
L 214.939941 -58.957056 
L 215.646919 -58.957056 
L 216.353897 -58.957056 
L 217.060875 -58.957056 
L 217.767853 -58.957056 
L 218.474831 -58.957056 
L 219.181809 -58.957056 
L 219.888788 -58.957056 
L 220.595766 -58.957056 
L 221.302744 -58.957056 
L 222.009722 -58.957056 
L 222.7167 -58.957056 
L 223.423678 -58.957056 
L 224.130656 -58.957056 
L 224.837634 -58.957056 
L 225.544612 -58.957056 
L 226.251591 -58.957056 
L 226.958569 -58.957056 
L 227.665547 -58.957056 
L 228.372525 -58.957056 
L 229.079503 -58.957056 
L 229.786481 -58.957056 
L 230.493459 -58.957056 
L 231.200437 -58.957056 
L 231.907416 -58.957056 
L 232.614394 -58.957056 
L 233.321372 -58.957056 
L 234.02835 -58.957056 
L 234.735328 -58.957056 
L 235.442306 -58.957056 
L 236.149284 -58.957056 
L 236.856263 -58.957056 
L 237.563241 -58.957056 
L 238.270219 -58.957056 
L 238.977197 -58.957056 
L 239.684175 -58.957056 
L 240.391153 -58.957056 
L 241.098131 -58.957056 
L 241.805109 -58.957056 
L 242.512088 -58.957056 
L 243.219066 -58.957056 
L 243.926044 -58.957056 
L 244.633022 -58.957056 
L 245.34 -58.957056 
L 246.046978 -58.957056 
L 246.753956 -58.957056 
L 247.460934 -58.957056 
L 248.167912 -58.957056 
L 248.874891 -58.957056 
L 249.581869 -58.957056 
L 250.288847 -58.957056 
L 250.995825 -58.957056 
L 251.702803 -58.957056 
L 252.409781 -58.957056 
L 253.116759 -58.957056 
L 253.823738 -58.957056 
L 254.530716 -58.957056 
L 255.237694 -58.957056 
L 255.944672 -58.957056 
L 256.65165 -58.957056 
L 257.358628 -58.957056 
L 258.065606 -58.957056 
L 258.772584 -58.957056 
L 259.479563 -58.957056 
L 260.186541 -58.957056 
L 260.893519 -58.957056 
L 261.600497 -58.957056 
L 262.307475 -58.957056 
L 263.014453 -58.957056 
L 263.721431 -58.957056 
L 264.428409 -58.957056 
L 265.135388 -58.957056 
L 265.842366 -58.957056 
L 266.549344 -58.957056 
L 267.256322 -58.957056 
L 267.9633 -58.957056 
L 268.670278 -58.957056 
L 269.377256 -58.957056 
L 270.084234 -58.957056 
L 270.791213 -58.957056 
L 271.498191 -58.957056 
L 272.205169 -58.957056 
L 272.912147 -58.957056 
L 273.619125 -58.957056 
L 274.326103 -58.957056 
L 275.033081 -58.957056 
L 275.740059 -58.957056 
L 276.447038 -58.957056 
L 277.154016 -58.957056 
L 277.860994 -58.957056 
L 278.567972 -58.957056 
L 279.27495 -58.957056 
L 279.981928 -58.957056 
L 280.688906 -58.957056 
L 281.395884 -58.957056 
L 282.102863 -58.957056 
L 282.809841 -58.957056 
L 283.516819 -58.957056 
L 284.223797 -58.957056 
L 284.930775 -58.957056 
L 285.637753 -58.957056 
L 286.344731 -58.957056 
L 287.051709 -58.957056 
L 287.758688 -58.957056 
L 288.465666 -58.957056 
L 289.172644 -58.957056 
L 289.879622 -58.957056 
L 290.5866 -58.957056 
L 291.293578 -58.957056 
L 292.000556 -58.957056 
L 292.707534 -58.957056 
L 293.414513 -58.957056 
L 294.121491 -58.957056 
L 294.828469 -58.957056 
L 295.535447 -58.957056 
L 296.242425 -58.957056 
L 296.949403 -58.957056 
L 297.656381 -58.957056 
L 298.363359 -58.957056 
L 299.070337 -58.957056 
L 299.777316 -58.957056 
L 300.484294 -58.957056 
L 301.191272 -58.957056 
L 301.89825 -58.957056 
L 302.605228 -58.957056 
L 303.312206 -58.957056 
L 304.019184 -58.957056 
L 304.726162 -58.957056 
L 305.433141 -58.957056 
L 306.140119 -58.957056 
L 306.847097 -58.957056 
L 307.554075 -58.957056 
L 308.261053 -58.957056 
L 308.968031 -58.957056 
L 309.675009 -58.957056 
L 310.381988 -58.957056 
L 311.088966 -58.957056 
L 311.795944 -58.957056 
L 312.502922 -58.957056 
L 313.2099 -58.957056 
L 313.916878 -58.957056 
L 314.623856 -58.957056 
L 315.330834 -58.957056 
L 316.037813 -58.957056 
L 316.744791 -58.957056 
L 317.451769 -58.957056 
L 318.158747 -58.957056 
L 318.865725 -58.957056 
L 319.572703 -58.957056 
L 320.279681 -58.957056 
L 320.986659 -58.957056 
L 321.693638 -58.957056 
L 322.400616 -58.957056 
L 323.107594 -58.957056 
L 323.814572 -58.957056 
L 324.52155 -58.957056 
L 325.228528 -58.957056 
L 325.935506 -58.957056 
L 326.642484 -58.957056 
L 327.349463 -58.957056 
L 328.056441 -58.957056 
L 328.763419 -58.957056 
L 329.470397 -58.957056 
L 330.177375 -58.957056 
L 330.884353 -58.957056 
L 331.591331 -58.957056 
L 332.298309 -58.957056 
L 333.005288 -58.957056 
L 333.712266 -58.957056 
L 334.419244 -58.957056 
L 335.126222 -58.957056 
L 335.8332 -58.957056 
L 336.540178 -58.957056 
L 337.247156 -58.957056 
L 337.954134 -58.957056 
L 338.661113 -58.957056 
L 339.368091 -58.957056 
L 340.075069 -58.957056 
L 340.782047 -58.957056 
L 341.489025 -58.957056 
L 342.196003 -58.957056 
L 342.902981 -58.957056 
L 343.609959 -58.957056 
L 344.316937 -58.957056 
L 345.023916 -58.957056 
L 345.730894 -58.957056 
L 346.437872 -58.957056 
L 347.14485 -58.957056 
L 347.851828 -58.957056 
L 348.558806 -58.957056 
L 349.265784 -58.957056 
L 349.972762 -58.957056 
L 350.679741 -58.957056 
L 351.386719 -58.957056 
L 352.093697 -58.957056 
L 352.800675 -58.957056 
L 353.507653 -58.957056 
L 354.214631 -58.957056 
L 354.921609 -58.957056 
L 355.628588 -58.957056 
L 356.335566 -58.957056 
L 357.042544 -58.957056 
L 357.749522 -58.957056 
L 358.4565 -58.957056 
L 359.163478 -58.957056 
L 359.870456 -58.957056 
L 360.577434 -58.957056 
L 361.284413 -58.957056 
L 361.991391 -58.957056 
L 362.698369 -58.957056 
L 363.405347 -58.957056 
L 364.112325 -58.957056 
L 364.819303 -58.957056 
L 365.526281 -58.957056 
L 366.233259 -58.957056 
L 366.940238 -58.957056 
L 367.647216 -58.957056 
L 368.354194 -58.957056 
L 369.061172 -58.957056 
L 369.76815 -58.957056 
L 370.475128 -58.957056 
L 371.182106 -58.957056 
L 371.889084 -58.957056 
L 372.596063 -58.957056 
L 373.303041 -58.957056 
L 374.010019 -58.957056 
L 374.716997 -58.957056 
L 375.423975 -58.957056 
L 376.130953 -58.957056 
L 376.837931 -58.957056 
L 377.544909 -58.957056 
L 378.251888 -58.957056 
L 378.958866 -58.957056 
L 379.665844 -58.957056 
L 380.372822 -58.957056 
L 381.0798 -58.957056 
L 381.786778 -58.957056 
L 382.493756 -58.957056 
L 383.200734 -58.957056 
L 383.907713 -58.957056 
L 384.614691 -58.957056 
L 385.321669 -58.957056 
L 386.028647 -58.957056 
L 386.735625 -58.957056 
L 387.442603 -58.957056 
L 388.149581 -58.957056 
L 388.856559 -58.957056 
L 389.563537 -58.957056 
L 390.270516 -58.957056 
L 390.977494 -58.957056 
L 391.684472 -58.957056 
L 392.39145 -58.957056 
L 393.098428 -58.957056 
L 393.805406 -58.957056 
L 394.512384 -58.957056 
L 395.219363 -58.957056 
L 395.926341 -58.957056 
L 396.633319 -58.957056 
L 397.340297 -58.957056 
L 398.047275 -58.957056 
L 398.754253 -58.957056 
L 399.461231 -58.957056 
L 400.168209 -58.957056 
L 400.875188 -58.957056 
L 401.582166 -58.957056 
L 402.289144 -58.957056 
L 402.996122 -58.957056 
L 403.7031 -58.957056 
L 404.410078 -58.957056 
L 405.117056 -58.957056 
L 405.824034 -58.957056 
L 406.531013 -58.957056 
L 407.237991 -58.957056 
L 407.944969 -58.957056 
L 408.651947 -58.957056 
L 409.358925 -58.957056 
L 410.065903 -58.957056 
L 410.772881 -58.957056 
L 411.479859 -58.957056 
L 412.186838 -58.957056 
L 412.893816 -58.957056 
L 413.600794 -58.957056 
L 414.307772 -58.957056 
L 415.01475 -58.957056 
L 415.721728 -58.957056 
L 416.428706 -58.957056 
L 417.135684 -58.957056 
L 417.842663 -58.957056 
L 418.549641 -58.957056 
L 419.256619 -58.957056 
L 419.963597 -58.957056 
L 420.670575 -58.957056 
L 421.377553 -58.957056 
L 422.084531 -58.957056 
L 422.791509 -58.957056 
L 423.498488 -58.957056 
L 424.205466 -58.957056 
L 424.912444 -58.957056 
L 425.619422 -58.957056 
L 426.3264 -58.957056 
L 426.3264 -58.960375 
L 426.3264 -58.960375 
L 425.619422 -58.961126 
L 424.912444 -58.960965 
L 424.205466 -58.959614 
L 423.498488 -58.964601 
L 422.791509 -58.966357 
L 422.084531 -58.962171 
L 421.377553 -58.962927 
L 420.670575 -58.96026 
L 419.963597 -58.960809 
L 419.256619 -58.959029 
L 418.549641 -58.967208 
L 417.842663 -58.979458 
L 417.135684 -58.977553 
L 416.428706 -58.96947 
L 415.721728 -58.968561 
L 415.01475 -58.964991 
L 414.307772 -58.959148 
L 413.600794 -58.964502 
L 412.893816 -58.973516 
L 412.186838 -58.973701 
L 411.479859 -58.967963 
L 410.772881 -58.97395 
L 410.065903 -58.966865 
L 409.358925 -58.970119 
L 408.651947 -58.97145 
L 407.944969 -58.958316 
L 407.237991 -58.966475 
L 406.531013 -58.969047 
L 405.824034 -58.967416 
L 405.117056 -58.971704 
L 404.410078 -58.968079 
L 403.7031 -58.962394 
L 402.996122 -58.962084 
L 402.289144 -58.962514 
L 401.582166 -58.971573 
L 400.875188 -58.971453 
L 400.168209 -58.962805 
L 399.461231 -58.961483 
L 398.754253 -58.961568 
L 398.047275 -58.961288 
L 397.340297 -58.958559 
L 396.633319 -58.960054 
L 395.926341 -58.961086 
L 395.219363 -58.963241 
L 394.512384 -58.959647 
L 393.805406 -58.9632 
L 393.098428 -58.96454 
L 392.39145 -58.968862 
L 391.684472 -58.980598 
L 390.977494 -58.984642 
L 390.270516 -58.978767 
L 389.563537 -58.959474 
L 388.856559 -58.960725 
L 388.149581 -58.963608 
L 387.442603 -58.971339 
L 386.735625 -58.967318 
L 386.028647 -58.962331 
L 385.321669 -58.960347 
L 384.614691 -58.960205 
L 383.907713 -58.97203 
L 383.200734 -58.974974 
L 382.493756 -58.964006 
L 381.786778 -58.960467 
L 381.0798 -58.970862 
L 380.372822 -58.973703 
L 379.665844 -58.969142 
L 378.958866 -58.966502 
L 378.251888 -58.961377 
L 377.544909 -58.96405 
L 376.837931 -58.96125 
L 376.130953 -58.964064 
L 375.423975 -58.965441 
L 374.716997 -58.962578 
L 374.010019 -58.965148 
L 373.303041 -58.969381 
L 372.596063 -58.96867 
L 371.889084 -58.965503 
L 371.182106 -58.961329 
L 370.475128 -58.959923 
L 369.76815 -58.963731 
L 369.061172 -58.959744 
L 368.354194 -58.971969 
L 367.647216 -58.972468 
L 366.940238 -58.965432 
L 366.233259 -58.995527 
L 365.526281 -59.006457 
L 364.819303 -58.983184 
L 364.112325 -58.980388 
L 363.405347 -59.028519 
L 362.698369 -59.086761 
L 361.991391 -59.118903 
L 361.284413 -59.070046 
L 360.577434 -58.99414 
L 359.870456 -59.013051 
L 359.163478 -59.007762 
L 358.4565 -58.999852 
L 357.749522 -58.988244 
L 357.042544 -59.004419 
L 356.335566 -58.999859 
L 355.628588 -58.984323 
L 354.921609 -59.026316 
L 354.214631 -58.992162 
L 353.507653 -59.065907 
L 352.800675 -59.081581 
L 352.093697 -59.077919 
L 351.386719 -59.01674 
L 350.679741 -59.013758 
L 349.972762 -59.033648 
L 349.265784 -59.123429 
L 348.558806 -59.020513 
L 347.851828 -58.995113 
L 347.14485 -58.997684 
L 346.437872 -59.031829 
L 345.730894 -59.014778 
L 345.023916 -59.064149 
L 344.316937 -59.109161 
L 343.609959 -59.232713 
L 342.902981 -59.209501 
L 342.196003 -59.149726 
L 341.489025 -59.169611 
L 340.782047 -59.176788 
L 340.075069 -59.162229 
L 339.368091 -59.005761 
L 338.661113 -59.109453 
L 337.954134 -59.184183 
L 337.247156 -59.280422 
L 336.540178 -59.292834 
L 335.8332 -59.183851 
L 335.126222 -59.22048 
L 334.419244 -59.20226 
L 333.712266 -59.385377 
L 333.005288 -59.372329 
L 332.298309 -59.390532 
L 331.591331 -59.32869 
L 330.884353 -59.064349 
L 330.177375 -59.134673 
L 329.470397 -59.172315 
L 328.763419 -59.205337 
L 328.056441 -59.025541 
L 327.349463 -59.331217 
L 326.642484 -59.320258 
L 325.935506 -59.047463 
L 325.228528 -59.251341 
L 324.52155 -59.214212 
L 323.814572 -59.190295 
L 323.107594 -59.108848 
L 322.400616 -59.536249 
L 321.693638 -59.624077 
L 320.986659 -59.662568 
L 320.279681 -59.69049 
L 319.572703 -59.409354 
L 318.865725 -59.460085 
L 318.158747 -59.450508 
L 317.451769 -59.736165 
L 316.744791 -59.735212 
L 316.037813 -59.547789 
L 315.330834 -59.374134 
L 314.623856 -59.118422 
L 313.916878 -59.594117 
L 313.2099 -59.688278 
L 312.502922 -59.710443 
L 311.795944 -59.676334 
L 311.088966 -59.972781 
L 310.381988 -60.156552 
L 309.675009 -59.567228 
L 308.968031 -59.518504 
L 308.261053 -59.208333 
L 307.554075 -59.382328 
L 306.847097 -59.202496 
L 306.140119 -59.196292 
L 305.433141 -59.519564 
L 304.726162 -60.257372 
L 304.019184 -59.497794 
L 303.312206 -59.448002 
L 302.605228 -59.578275 
L 301.89825 -60.30409 
L 301.191272 -60.371639 
L 300.484294 -60.216636 
L 299.777316 -59.439357 
L 299.070337 -60.184376 
L 298.363359 -59.467801 
L 297.656381 -59.76083 
L 296.949403 -59.919056 
L 296.242425 -59.604785 
L 295.535447 -59.912653 
L 294.828469 -60.360844 
L 294.121491 -60.970191 
L 293.414513 -60.595122 
L 292.707534 -64.583457 
L 292.000556 -66.748814 
L 291.293578 -66.10133 
L 290.5866 -63.536712 
L 289.879622 -60.365453 
L 289.172644 -61.005504 
L 288.465666 -64.889162 
L 287.758688 -64.187137 
L 287.051709 -61.061951 
L 286.344731 -62.893096 
L 285.637753 -60.879214 
L 284.930775 -61.745435 
L 284.223797 -63.089306 
L 283.516819 -61.30454 
L 282.809841 -61.939327 
L 282.102863 -65.110519 
L 281.395884 -66.716725 
L 280.688906 -66.451617 
L 279.981928 -63.343749 
L 279.27495 -60.69219 
L 278.567972 -60.296248 
L 277.860994 -61.627762 
L 277.154016 -60.378498 
L 276.447038 -61.885247 
L 275.740059 -62.546462 
L 275.033081 -60.766936 
L 274.326103 -60.660746 
L 273.619125 -59.741544 
L 272.912147 -62.912891 
L 272.205169 -63.150621 
L 271.498191 -62.28238 
L 270.791213 -64.301683 
L 270.084234 -61.029565 
L 269.377256 -61.720465 
L 268.670278 -61.023216 
L 267.9633 -60.522945 
L 267.256322 -59.359611 
L 266.549344 -59.836564 
L 265.842366 -62.475902 
L 265.135388 -62.079441 
L 264.428409 -61.361317 
L 263.721431 -63.185528 
L 263.014453 -63.470771 
L 262.307475 -64.440456 
L 261.600497 -62.904019 
L 260.893519 -61.518666 
L 260.186541 -61.560159 
L 259.479563 -64.24509 
L 258.772584 -65.866077 
L 258.065606 -62.472674 
L 257.358628 -61.122366 
L 256.65165 -62.585845 
L 255.944672 -62.085632 
L 255.237694 -62.897062 
L 254.530716 -63.976151 
L 253.823738 -61.676274 
L 253.116759 -62.393597 
L 252.409781 -62.198353 
L 251.702803 -63.384518 
L 250.995825 -64.701286 
L 250.288847 -64.905787 
L 249.581869 -62.25967 
L 248.874891 -64.81867 
L 248.167912 -66.934252 
L 247.460934 -63.683491 
L 246.753956 -63.821912 
L 246.046978 -65.892375 
L 245.34 -60.7626 
L 244.633022 -65.576681 
L 243.926044 -62.478194 
L 243.219066 -64.033247 
L 242.512088 -61.68425 
L 241.805109 -65.417103 
L 241.098131 -71.147604 
L 240.391153 -67.782508 
L 239.684175 -61.796345 
L 238.977197 -63.074963 
L 238.270219 -60.163685 
L 237.563241 -63.180079 
L 236.856263 -69.914338 
L 236.149284 -77.929138 
L 235.442306 -73.220686 
L 234.735328 -63.245396 
L 234.02835 -64.949016 
L 233.321372 -64.452322 
L 232.614394 -63.489146 
L 231.907416 -66.434677 
L 231.200437 -72.552131 
L 230.493459 -69.204919 
L 229.786481 -63.233614 
L 229.079503 -64.096278 
L 228.372525 -66.493939 
L 227.665547 -68.217166 
L 226.958569 -67.801001 
L 226.251591 -62.432157 
L 225.544612 -61.201627 
L 224.837634 -64.235803 
L 224.130656 -72.730709 
L 223.423678 -69.067307 
L 222.7167 -69.994233 
L 222.009722 -77.168051 
L 221.302744 -67.503906 
L 220.595766 -70.617715 
L 219.888788 -74.691635 
L 219.181809 -77.305391 
L 218.474831 -77.372033 
L 217.767853 -74.146721 
L 217.060875 -73.86392 
L 216.353897 -70.564546 
L 215.646919 -66.043153 
L 214.939941 -61.799015 
L 214.232963 -67.513716 
L 213.525984 -74.674219 
L 212.819006 -74.604714 
L 212.112028 -79.947604 
L 211.40505 -70.606951 
L 210.698072 -73.572659 
L 209.991094 -77.948289 
L 209.284116 -59.229011 
L 208.577137 -72.210402 
L 207.870159 -77.899889 
L 207.163181 -76.301157 
L 206.456203 -86.920987 
L 205.749225 -78.17933 
L 205.042247 -64.891414 
L 204.335269 -64.229617 
L 203.628291 -83.077561 
L 202.921312 -115.650052 
L 202.214334 -106.822274 
L 201.507356 -74.733685 
L 200.800378 -82.926781 
L 200.0934 -97.128471 
L 199.386422 -102.239954 
L 198.679444 -95.30604 
L 197.972466 -74.731093 
L 197.265488 -86.917883 
L 196.558509 -85.847147 
L 195.851531 -73.566034 
L 195.144553 -72.573037 
L 194.437575 -74.423936 
L 193.730597 -70.664178 
L 193.023619 -98.16031 
L 192.316641 -101.910038 
L 191.609663 -82.776819 
L 190.902684 -61.455394 
L 190.195706 -61.739851 
L 189.488728 -69.085356 
L 188.78175 -87.496882 
L 188.074772 -78.861559 
L 187.367794 -66.341708 
L 186.660816 -63.944233 
L 185.953837 -65.388168 
L 185.246859 -86.306153 
L 184.539881 -84.41662 
L 183.832903 -71.969426 
L 183.125925 -67.675833 
L 182.418947 -81.69901 
L 181.711969 -93.325799 
L 181.004991 -95.179541 
L 180.298012 -83.354663 
L 179.591034 -68.857631 
L 178.884056 -76.208418 
L 178.177078 -81.404569 
L 177.4701 -79.003936 
L 176.763122 -110.497545 
L 176.056144 -92.05566 
L 175.349166 -67.855429 
L 174.642188 -76.399639 
L 173.935209 -76.552688 
L 173.228231 -98.095354 
L 172.521253 -88.30114 
L 171.814275 -75.059819 
L 171.107297 -73.348027 
L 170.400319 -64.635425 
L 169.693341 -86.930686 
L 168.986363 -70.323947 
L 168.279384 -94.990765 
L 167.572406 -85.081074 
L 166.865428 -71.475509 
L 166.15845 -82.06834 
L 165.451472 -73.560947 
L 164.744494 -77.322707 
L 164.037516 -78.295847 
L 163.330537 -65.870717 
L 162.623559 -78.662385 
L 161.916581 -78.712952 
L 161.209603 -72.143716 
L 160.502625 -77.379633 
L 159.795647 -74.885797 
L 159.088669 -67.043189 
L 158.381691 -71.091556 
L 157.674712 -80.040586 
L 156.967734 -86.489368 
L 156.260756 -83.098398 
L 155.553778 -77.686392 
L 154.8468 -82.926371 
L 154.139822 -93.265993 
L 153.432844 -94.99961 
L 152.725866 -91.632539 
L 152.018888 -80.936687 
L 151.311909 -81.718518 
L 150.604931 -75.710213 
L 149.897953 -73.570442 
L 149.190975 -75.209641 
L 148.483997 -67.447855 
L 147.777019 -70.507155 
L 147.070041 -67.282028 
L 146.363063 -68.144329 
L 145.656084 -72.301466 
L 144.949106 -84.015433 
L 144.242128 -92.044298 
L 143.53515 -74.805621 
L 142.828172 -75.771563 
L 142.121194 -80.448312 
L 141.414216 -70.274931 
L 140.707237 -85.95928 
L 140.000259 -90.932859 
L 139.293281 -87.614821 
L 138.586303 -83.33854 
L 137.879325 -74.27558 
L 137.172347 -73.23772 
L 136.465369 -71.072464 
L 135.758391 -65.871242 
L 135.051412 -67.17753 
L 134.344434 -65.358602 
L 133.637456 -68.295396 
L 132.930478 -73.422618 
L 132.2235 -68.199375 
L 131.516522 -61.330268 
L 130.809544 -65.565293 
L 130.102566 -69.061847 
L 129.395588 -66.813421 
L 128.688609 -63.227401 
L 127.981631 -59.340473 
L 127.274653 -60.373714 
L 126.567675 -60.626141 
L 125.860697 -61.938205 
L 125.153719 -67.128955 
L 124.446741 -71.015606 
L 123.739763 -67.094252 
L 123.032784 -61.993313 
L 122.325806 -62.750699 
L 121.618828 -64.818824 
L 120.91185 -59.269478 
L 120.204872 -70.220414 
L 119.497894 -72.831675 
L 118.790916 -63.860907 
L 118.083938 -65.359208 
L 117.376959 -62.1459 
L 116.669981 -63.872887 
L 115.963003 -61.700022 
L 115.256025 -60.794547 
L 114.549047 -60.993132 
L 113.842069 -59.342605 
L 113.135091 -61.801608 
L 112.428113 -61.536173 
L 111.721134 -61.838931 
L 111.014156 -61.318054 
L 110.307178 -60.25923 
L 109.6002 -61.821475 
L 108.893222 -62.364445 
L 108.186244 -62.123485 
L 107.479266 -61.072806 
L 106.772288 -60.709699 
L 106.065309 -60.884392 
L 105.358331 -60.145266 
L 104.651353 -59.573696 
L 103.944375 -59.421033 
L 103.237397 -59.748558 
L 102.530419 -59.583527 
L 101.823441 -59.231556 
L 101.116463 -59.411338 
L 100.409484 -59.602218 
L 99.702506 -59.434877 
L 98.995528 -59.137528 
L 98.28855 -59.426042 
L 97.581572 -59.297535 
L 96.874594 -59.565727 
L 96.167616 -60.109335 
L 95.460638 -59.670709 
L 94.753659 -59.893145 
L 94.046681 -59.43918 
L 93.339703 -59.470122 
L 92.632725 -59.720563 
L 91.925747 -60.247846 
L 91.218769 -59.361504 
L 90.511791 -59.131061 
L 89.804813 -60.029656 
L 89.097834 -59.66868 
L 88.390856 -59.519849 
L 87.683878 -59.2816 
L 86.9769 -59.494076 
L 86.269922 -59.529064 
L 85.562944 -60.081813 
L 84.855966 -60.809572 
L 84.148988 -60.585127 
L 83.442009 -59.440163 
L 82.735031 -59.353788 
L 82.028053 -59.925219 
L 81.321075 -59.423111 
L 80.614097 -59.581377 
L 79.907119 -59.471725 
L 79.200141 -59.468753 
L 78.493163 -60.025042 
L 77.786184 -60.671264 
L 77.079206 -59.974582 
L 76.372228 -61.419821 
L 75.66525 -61.991268 
L 74.958272 -60.293429 
L 74.251294 -59.40251 
L 73.544316 -60.57937 
L 72.837338 -61.404162 
L 72.130359 -63.657201 
L 71.423381 -62.722779 
L 70.716403 -62.664895 
L 70.009425 -62.368911 
L 69.302447 -59.97255 
L 68.595469 -61.803151 
L 67.888491 -61.597954 
L 67.181513 -66.830867 
L 66.474534 -82.573059 
L 65.767556 -120.235397 
L 65.060578 -148.813056 
L 64.3536 -71.916994 
z
" style="stroke: #dbeafe; stroke-opacity: 0.95"/>
    </defs>
    <g clip-path="url(#pd5d220d7c0)">
     <use xlink:href="#mbd35f7f2ae" x="0" y="373.824" style="fill: #dbeafe; fill-opacity: 0.95; stroke: #dbeafe; stroke-opacity: 0.95"/>
    </g>
   </g>
   <g id="patch_4">
    <path d="M 559.6848 314.866944 
L 561.207943 314.866944 
L 561.207943 225.010944 
L 559.6848 225.010944 
z
" clip-path="url(#pd5d220d7c0)" style="fill: #7c3aed; opacity: 0.9"/>
   </g>
   <g id="patch_5">
    <path d="M 561.637548 314.866944 
L 563.160691 314.866944 
L 563.160691 274.506529 
L 561.637548 274.506529 
z
" clip-path="url(#pd5d220d7c0)" style="fill: #7c3aed; opacity: 0.558484"/>
   </g>
   <g id="patch_6">
    <path d="M 563.590296 314.866944 
L 565.113439 314.866944 
L 565.113439 309.077417 
L 563.590296 309.077417 
z
" clip-path="url(#pd5d220d7c0)" style="fill: #7c3aed; opacity: 0.319947"/>
   </g>
   <g id="patch_7">
    <path d="M 565.543044 314.866944 
L 567.066187 314.866944 
L 567.066187 314.210414 
L 565.543044 314.210414 
z
" clip-path="url(#pd5d220d7c0)" style="fill: #7c3aed; opacity: 0.28453"/>
   </g>
   <g id="patch_8">
    <path d="M 567.495792 314.866944 
L 569.018935 314.866944 
L 569.018935 314.754743 
L 567.495792 314.754743 
z
" clip-path="url(#pd5d220d7c0)" style="fill: #7c3aed; opacity: 0.280774"/>
   </g>
   <g id="patch_9">
    <path d="M 569.44854 314.866944 
L 570.971683 314.866944 
L 570.971683 314.8573 
L 569.44854 314.8573 
z
" clip-path="url(#pd5d220d7c0)" style="fill: #7c3aed; opacity: 0.280067"/>
   </g>
   <g id="patch_10">
    <path d="M 571.401288 314.866944 
L 572.924431 314.866944 
L 572.924431 314.699718 
L 571.401288 314.699718 
z
" clip-path="url(#pd5d220d7c0)" style="fill: #7c3aed; opacity: 0.281154"/>
   </g>
   <g id="patch_11">
    <path d="M 573.354036 314.866944 
L 574.877179 314.866944 
L 574.877179 314.68328 
L 573.354036 314.68328 
z
" clip-path="url(#pd5d220d7c0)" style="fill: #7c3aed; opacity: 0.281267"/>
   </g>
   <g id="patch_12">
    <path d="M 575.306784 314.866944 
L 576.829927 314.866944 
L 576.829927 314.655602 
L 575.306784 314.655602 
z
" clip-path="url(#pd5d220d7c0)" style="fill: #7c3aed; opacity: 0.281458"/>
   </g>
   <g id="patch_13">
    <path d="M 577.259532 314.866944 
L 578.782675 314.866944 
L 578.782675 314.820359 
L 577.259532 314.820359 
z
" clip-path="url(#pd5d220d7c0)" style="fill: #7c3aed; opacity: 0.280321"/>
   </g>
   <g id="patch_14">
    <path d="M 579.21228 314.866944 
L 580.735423 314.866944 
L 580.735423 314.85213 
L 579.21228 314.85213 
z
" clip-path="url(#pd5d220d7c0)" style="fill: #7c3aed; opacity: 0.280102"/>
   </g>
   <g id="patch_15">
    <path d="M 581.165028 314.866944 
L 582.688171 314.866944 
L 582.688171 314.774052 
L 581.165028 314.774052 
z
" clip-path="url(#pd5d220d7c0)" style="fill: #7c3aed; opacity: 0.280641"/>
   </g>
   <g id="patch_16">
    <path d="M 583.117776 314.866944 
L 584.640919 314.866944 
L 584.640919 314.826355 
L 583.117776 314.826355 
z
" clip-path="url(#pd5d220d7c0)" style="fill: #7c3aed; opacity: 0.28028"/>
   </g>
   <g id="patch_17">
    <path d="M 585.070524 314.866944 
L 586.593667 314.866944 
L 586.593667 314.847541 
L 585.070524 314.847541 
z
" clip-path="url(#pd5d220d7c0)" style="fill: #7c3aed; opacity: 0.280134"/>
   </g>
   <g id="patch_18">
    <path d="M 587.023272 314.866944 
L 588.546415 314.866944 
L 588.546415 314.862905 
L 587.023272 314.862905 
z
" clip-path="url(#pd5d220d7c0)" style="fill: #7c3aed; opacity: 0.280028"/>
   </g>
   <g id="patch_19">
    <path d="M 588.97602 314.866944 
L 590.499163 314.866944 
L 590.499163 314.861128 
L 588.97602 314.861128 
z
" clip-path="url(#pd5d220d7c0)" style="fill: #7c3aed; opacity: 0.28004"/>
   </g>
   <g id="patch_20">
    <path d="M 590.928768 314.866944 
L 592.451911 314.866944 
L 592.451911 314.862207 
L 590.928768 314.862207 
z
" clip-path="url(#pd5d220d7c0)" style="fill: #7c3aed; opacity: 0.280033"/>
   </g>
   <g id="patch_21">
    <path d="M 592.881516 314.866944 
L 594.404659 314.866944 
L 594.404659 314.839329 
L 592.881516 314.839329 
z
" clip-path="url(#pd5d220d7c0)" style="fill: #7c3aed; opacity: 0.280191"/>
   </g>
   <g id="patch_22">
    <path d="M 594.834264 314.866944 
L 596.357407 314.866944 
L 596.357407 314.848237 
L 594.834264 314.848237 
z
" clip-path="url(#pd5d220d7c0)" style="fill: #7c3aed; opacity: 0.280129"/>
   </g>
   <g id="patch_23">
    <path d="M 596.787012 314.866944 
L 598.310155 314.866944 
L 598.310155 314.863337 
L 596.787012 314.863337 
z
" clip-path="url(#pd5d220d7c0)" style="fill: #7c3aed; opacity: 0.280025"/>
   </g>
   <g id="patch_24">
    <path d="M 598.73976 314.866944 
L 600.262903 314.866944 
L 600.262903 314.859575 
L 598.73976 314.859575 
z
" clip-path="url(#pd5d220d7c0)" style="fill: #7c3aed; opacity: 0.280051"/>
   </g>
   <g id="patch_25">
    <path d="M 600.692508 314.866944 
L 602.215651 314.866944 
L 602.215651 314.86326 
L 600.692508 314.86326 
z
" clip-path="url(#pd5d220d7c0)" style="fill: #7c3aed; opacity: 0.280025"/>
   </g>
   <g id="patch_26">
    <path d="M 602.645256 314.866944 
L 604.168399 314.866944 
L 604.168399 314.855431 
L 602.645256 314.855431 
z
" clip-path="url(#pd5d220d7c0)" style="fill: #7c3aed; opacity: 0.280079"/>
   </g>
   <g id="patch_27">
    <path d="M 604.598004 314.866944 
L 606.121147 314.866944 
L 606.121147 314.860164 
L 604.598004 314.860164 
z
" clip-path="url(#pd5d220d7c0)" style="fill: #7c3aed; opacity: 0.280047"/>
   </g>
   <g id="patch_28">
    <path d="M 606.550752 314.866944 
L 608.073895 314.866944 
L 608.073895 314.856589 
L 606.550752 314.856589 
z
" clip-path="url(#pd5d220d7c0)" style="fill: #7c3aed; opacity: 0.280071"/>
   </g>
   <g id="patch_29">
    <path d="M 608.5035 314.866944 
L 610.026643 314.866944 
L 610.026643 314.864805 
L 608.5035 314.864805 
z
" clip-path="url(#pd5d220d7c0)" style="fill: #7c3aed; opacity: 0.280015"/>
   </g>
   <g id="patch_30">
    <path d="M 610.456248 314.866944 
L 611.979391 314.866944 
L 611.979391 314.863928 
L 610.456248 314.863928 
z
" clip-path="url(#pd5d220d7c0)" style="fill: #7c3aed; opacity: 0.280021"/>
   </g>
   <g id="patch_31">
    <path d="M 612.408996 314.866944 
L 613.932139 314.866944 
L 613.932139 314.863368 
L 612.408996 314.863368 
z
" clip-path="url(#pd5d220d7c0)" style="fill: #7c3aed; opacity: 0.280025"/>
   </g>
   <g id="patch_32">
    <path d="M 614.361744 314.866944 
L 615.884887 314.866944 
L 615.884887 314.860694 
L 614.361744 314.860694 
z
" clip-path="url(#pd5d220d7c0)" style="fill: #7c3aed; opacity: 0.280043"/>
   </g>
   <g id="patch_33">
    <path d="M 616.314492 314.866944 
L 617.837635 314.866944 
L 617.837635 314.818943 
L 616.314492 314.818943 
z
" clip-path="url(#pd5d220d7c0)" style="fill: #7c3aed; opacity: 0.280331"/>
   </g>
   <g id="patch_34">
    <path d="M 618.26724 314.866944 
L 619.790383 314.866944 
L 619.790383 314.756556 
L 618.26724 314.756556 
z
" clip-path="url(#pd5d220d7c0)" style="fill: #7c3aed; opacity: 0.280762"/>
   </g>
   <g id="patch_35">
    <path d="M 620.219988 314.866944 
L 621.743131 314.866944 
L 621.743131 314.787405 
L 620.219988 314.787405 
z
" clip-path="url(#pd5d220d7c0)" style="fill: #7c3aed; opacity: 0.280549"/>
   </g>
   <g id="patch_36">
    <path d="M 622.172736 314.866944 
L 623.695879 314.866944 
L 623.695879 314.810259 
L 622.172736 314.810259 
z
" clip-path="url(#pd5d220d7c0)" style="fill: #7c3aed; opacity: 0.280391"/>
   </g>
   <g id="patch_37">
    <path d="M 624.125484 314.866944 
L 625.648627 314.866944 
L 625.648627 314.709462 
L 624.125484 314.709462 
z
" clip-path="url(#pd5d220d7c0)" style="fill: #7c3aed; opacity: 0.281087"/>
   </g>
   <g id="patch_38">
    <path d="M 626.078232 314.866944 
L 627.601375 314.866944 
L 627.601375 313.933644 
L 626.078232 313.933644 
z
" clip-path="url(#pd5d220d7c0)" style="fill: #7c3aed; opacity: 0.28644"/>
   </g>
   <g id="patch_39">
    <path d="M 628.03098 314.866944 
L 629.554123 314.866944 
L 629.554123 314.281007 
L 628.03098 314.281007 
z
" clip-path="url(#pd5d220d7c0)" style="fill: #7c3aed; opacity: 0.284043"/>
   </g>
   <g id="patch_40">
    <path d="M 629.983728 314.866944 
L 631.506871 314.866944 
L 631.506871 314.044873 
L 629.983728 314.044873 
z
" clip-path="url(#pd5d220d7c0)" style="fill: #7c3aed; opacity: 0.285672"/>
   </g>
   <g id="patch_41">
    <path d="M 631.936476 314.866944 
L 633.459619 314.866944 
L 633.459619 314.713701 
L 631.936476 314.713701 
z
" clip-path="url(#pd5d220d7c0)" style="fill: #7c3aed; opacity: 0.281057"/>
   </g>
   <g id="patch_42">
    <path d="M 633.889224 314.866944 
L 635.412367 314.866944 
L 635.412367 314.060431 
L 633.889224 314.060431 
z
" clip-path="url(#pd5d220d7c0)" style="fill: #7c3aed; opacity: 0.285565"/>
   </g>
   <g id="patch_43">
    <path d="M 635.841972 314.866944 
L 637.365115 314.866944 
L 637.365115 313.740114 
L 635.841972 313.740114 
z
" clip-path="url(#pd5d220d7c0)" style="fill: #7c3aed; opacity: 0.287775"/>
   </g>
   <g id="patch_44">
    <path d="M 637.79472 314.866944 
L 639.317863 314.866944 
L 639.317863 312.286346 
L 637.79472 312.286346 
z
" clip-path="url(#pd5d220d7c0)" style="fill: #7c3aed; opacity: 0.297806"/>
   </g>
   <g id="patch_45">
    <path d="M 639.747468 314.866944 
L 641.270611 314.866944 
L 641.270611 306.656914 
L 639.747468 306.656914 
z
" clip-path="url(#pd5d220d7c0)" style="fill: #7c3aed; opacity: 0.336649"/>
   </g>
   <g id="patch_46">
    <path d="M 641.700216 314.866944 
L 643.223359 314.866944 
L 643.223359 308.950848 
L 641.700216 308.950848 
z
" clip-path="url(#pd5d220d7c0)" style="fill: #7c3aed; opacity: 0.320821"/>
   </g>
   <g id="patch_47">
    <path d="M 643.652964 314.866944 
L 645.176107 314.866944 
L 645.176107 312.0675 
L 643.652964 312.0675 
z
" clip-path="url(#pd5d220d7c0)" style="fill: #7c3aed; opacity: 0.299316"/>
   </g>
   <g id="patch_48">
    <path d="M 645.605712 314.866944 
L 647.128855 314.866944 
L 647.128855 307.994121 
L 645.605712 307.994121 
z
" clip-path="url(#pd5d220d7c0)" style="fill: #7c3aed; opacity: 0.327422"/>
   </g>
   <g id="patch_49">
    <path d="M 647.55846 314.866944 
L 649.081603 314.866944 
L 649.081603 305.44573 
L 647.55846 305.44573 
z
" clip-path="url(#pd5d220d7c0)" style="fill: #7c3aed; opacity: 0.345006"/>
   </g>
   <g id="patch_50">
    <path d="M 649.511208 314.866944 
L 651.034351 314.866944 
L 651.034351 310.744825 
L 649.511208 310.744825 
z
" clip-path="url(#pd5d220d7c0)" style="fill: #7c3aed; opacity: 0.308442"/>
   </g>
   <g id="patch_51">
    <path d="M 651.463956 314.866944 
L 652.987099 314.866944 
L 652.987099 311.133848 
L 651.463956 311.133848 
z
" clip-path="url(#pd5d220d7c0)" style="fill: #7c3aed; opacity: 0.305758"/>
   </g>
   <g id="patch_52">
    <path d="M 653.416704 314.866944 
L 654.939847 314.866944 
L 654.939847 308.467309 
L 653.416704 308.467309 
z
" clip-path="url(#pd5d220d7c0)" style="fill: #7c3aed; opacity: 0.324157"/>
   </g>
   <g id="patch_53">
    <path d="M 655.369452 314.866944 
L 656.892595 314.866944 
L 656.892595 307.942644 
L 655.369452 307.942644 
z
" clip-path="url(#pd5d220d7c0)" style="fill: #7c3aed; opacity: 0.327777"/>
   </g>
   <g id="patch_54">
    <path d="M 657.3222 314.866944 
L 658.845343 314.866944 
L 658.845343 303.548028 
L 657.3222 303.548028 
z
" clip-path="url(#pd5d220d7c0)" style="fill: #7c3aed; opacity: 0.3581"/>
   </g>
   <g id="patch_55">
    <path d="M 659.274948 314.866944 
L 660.798091 314.866944 
L 660.798091 306.926869 
L 659.274948 306.926869 
z
" clip-path="url(#pd5d220d7c0)" style="fill: #7c3aed; opacity: 0.334786"/>
   </g>
   <g id="patch_56">
    <path d="M 661.227696 314.866944 
L 662.750839 314.866944 
L 662.750839 311.266797 
L 661.227696 311.266797 
z
" clip-path="url(#pd5d220d7c0)" style="fill: #7c3aed; opacity: 0.304841"/>
   </g>
   <g id="patch_57">
    <path d="M 663.180444 314.866944 
L 664.703587 314.866944 
L 664.703587 307.311427 
L 663.180444 307.311427 
z
" clip-path="url(#pd5d220d7c0)" style="fill: #7c3aed; opacity: 0.332133"/>
   </g>
   <g id="patch_58">
    <path d="M 665.133192 314.866944 
L 666.656335 314.866944 
L 666.656335 305.46947 
L 665.133192 305.46947 
z
" clip-path="url(#pd5d220d7c0)" style="fill: #7c3aed; opacity: 0.344842"/>
   </g>
   <g id="patch_59">
    <path d="M 667.08594 314.866944 
L 668.609083 314.866944 
L 668.609083 300.716423 
L 667.08594 300.716423 
z
" clip-path="url(#pd5d220d7c0)" style="fill: #7c3aed; opacity: 0.377638"/>
   </g>
   <g id="patch_60">
    <path d="M 669.038688 314.866944 
L 670.561831 314.866944 
L 670.561831 310.396749 
L 669.038688 310.396749 
z
" clip-path="url(#pd5d220d7c0)" style="fill: #7c3aed; opacity: 0.310844"/>
   </g>
   <g id="patch_61">
    <path d="M 670.991436 314.866944 
L 672.514579 314.866944 
L 672.514579 312.507722 
L 670.991436 312.507722 
z
" clip-path="url(#pd5d220d7c0)" style="fill: #7c3aed; opacity: 0.296278"/>
   </g>
   <g id="patch_62">
    <path d="M 672.944184 314.866944 
L 674.467327 314.866944 
L 674.467327 312.355789 
L 672.944184 312.355789 
z
" clip-path="url(#pd5d220d7c0)" style="fill: #7c3aed; opacity: 0.297327"/>
   </g>
   <g id="patch_63">
    <path d="M 674.896932 314.866944 
L 676.420075 314.866944 
L 676.420075 313.821323 
L 674.896932 313.821323 
z
" clip-path="url(#pd5d220d7c0)" style="fill: #7c3aed; opacity: 0.287215"/>
   </g>
   <g id="patch_64">
    <path d="M 676.84968 314.866944 
L 678.372823 314.866944 
L 678.372823 313.77582 
L 676.84968 313.77582 
z
" clip-path="url(#pd5d220d7c0)" style="fill: #7c3aed; opacity: 0.287529"/>
   </g>
   <g id="patch_65">
    <path d="M 678.802428 314.866944 
L 680.325571 314.866944 
L 680.325571 314.070332 
L 678.802428 314.070332 
z
" clip-path="url(#pd5d220d7c0)" style="fill: #7c3aed; opacity: 0.285497"/>
   </g>
   <g id="patch_66">
    <path d="M 680.755176 314.866944 
L 682.278319 314.866944 
L 682.278319 314.448717 
L 680.755176 314.448717 
z
" clip-path="url(#pd5d220d7c0)" style="fill: #7c3aed; opacity: 0.282886"/>
   </g>
   <g id="patch_67">
    <path d="M 682.707924 314.866944 
L 684.231067 314.866944 
L 684.231067 314.628033 
L 682.707924 314.628033 
z
" clip-path="url(#pd5d220d7c0)" style="fill: #7c3aed; opacity: 0.281648"/>
   </g>
   <g id="patch_68">
    <path d="M 684.660672 314.866944 
L 686.183815 314.866944 
L 686.183815 314.670764 
L 684.660672 314.670764 
z
" clip-path="url(#pd5d220d7c0)" style="fill: #7c3aed; opacity: 0.281354"/>
   </g>
   <g id="patch_69">
    <path d="M 686.61342 314.866944 
L 688.136563 314.866944 
L 688.136563 314.747472 
L 686.61342 314.747472 
z
" clip-path="url(#pd5d220d7c0)" style="fill: #7c3aed; opacity: 0.280824"/>
   </g>
   <g id="patch_70">
    <path d="M 688.566168 314.866944 
L 690.089311 314.866944 
L 690.089311 314.674638 
L 688.566168 314.674638 
z
" clip-path="url(#pd5d220d7c0)" style="fill: #7c3aed; opacity: 0.281327"/>
   </g>
   <g id="patch_71">
    <path d="M 690.518916 314.866944 
L 692.042059 314.866944 
L 692.042059 314.614836 
L 690.518916 314.614836 
z
" clip-path="url(#pd5d220d7c0)" style="fill: #7c3aed; opacity: 0.28174"/>
   </g>
   <g id="patch_72">
    <path d="M 692.471664 314.866944 
L 693.994807 314.866944 
L 693.994807 314.727502 
L 692.471664 314.727502 
z
" clip-path="url(#pd5d220d7c0)" style="fill: #7c3aed; opacity: 0.280962"/>
   </g>
   <g id="patch_73">
    <path d="M 694.424412 314.866944 
L 695.947555 314.866944 
L 695.947555 314.857644 
L 694.424412 314.857644 
z
" clip-path="url(#pd5d220d7c0)" style="fill: #7c3aed; opacity: 0.280064"/>
   </g>
   <g id="patch_74">
    <path d="M 696.37716 314.866944 
L 697.900303 314.866944 
L 697.900303 314.861125 
L 696.37716 314.861125 
z
" clip-path="url(#pd5d220d7c0)" style="fill: #7c3aed; opacity: 0.28004"/>
   </g>
   <g id="patch_75">
    <path d="M 698.329908 314.866944 
L 699.853051 314.866944 
L 699.853051 314.863996 
L 698.329908 314.863996 
z
" clip-path="url(#pd5d220d7c0)" style="fill: #7c3aed; opacity: 0.28002"/>
   </g>
   <g id="patch_76">
    <path d="M 700.282656 314.866944 
L 701.805799 314.866944 
L 701.805799 314.865808 
L 700.282656 314.865808 
z
" clip-path="url(#pd5d220d7c0)" style="fill: #7c3aed; opacity: 0.280008"/>
   </g>
   <g id="patch_77">
    <path d="M 702.235404 314.866944 
L 703.758547 314.866944 
L 703.758547 314.866497 
L 702.235404 314.866497 
z
" clip-path="url(#pd5d220d7c0)" style="fill: #7c3aed; opacity: 0.280003"/>
   </g>
   <g id="patch_78">
    <path d="M 704.188152 314.866944 
L 705.711295 314.866944 
L 705.711295 314.866851 
L 704.188152 314.866851 
z
" clip-path="url(#pd5d220d7c0)" style="fill: #7c3aed; opacity: 0.280001"/>
   </g>
   <g id="patch_79">
    <path d="M 706.1409 314.866944 
L 707.664043 314.866944 
L 707.664043 314.866896 
L 706.1409 314.866896 
z
" clip-path="url(#pd5d220d7c0)" style="fill: #7c3aed; opacity: 0.28"/>
   </g>
   <g id="patch_80">
    <path d="M 708.093648 314.866944 
L 709.616791 314.866944 
L 709.616791 314.866943 
L 708.093648 314.866943 
z
" clip-path="url(#pd5d220d7c0)" style="fill: #7c3aed; opacity: 0.28"/>
   </g>
   <g id="patch_81">
    <path d="M 710.046396 314.866944 
L 711.569539 314.866944 
L 711.569539 314.866942 
L 710.046396 314.866942 
z
" clip-path="url(#pd5d220d7c0)" style="fill: #7c3aed; opacity: 0.28"/>
   </g>
   <g id="patch_82">
    <path d="M 711.999144 314.866944 
L 713.522287 314.866944 
L 713.522287 314.866943 
L 711.999144 314.866943 
z
" clip-path="url(#pd5d220d7c0)" style="fill: #7c3aed; opacity: 0.28"/>
   </g>
   <g id="patch_83">
    <path d="M 713.951892 314.866944 
L 715.475035 314.866944 
L 715.475035 314.866942 
L 713.951892 314.866942 
z
" clip-path="url(#pd5d220d7c0)" style="fill: #7c3aed; opacity: 0.28"/>
   </g>
   <g id="patch_84">
    <path d="M 464.327777 267.422976 
Q 496.430683 267.422976 525.738504 267.422976 
" clip-path="url(#pd5d220d7c0)" style="fill: none; stroke: #5b21b6; stroke-width: 2.5; stroke-linecap: round"/>
    <path d="M 519.338504 264.222976 
L 525.738504 267.422976 
L 519.338504 270.622976 
z
" clip-path="url(#pd5d220d7c0)" style="fill: #5b21b6; stroke: #5b21b6; stroke-width: 2.5; stroke-linecap: round"/>
   </g>
   <g id="line2d_1">
    <path d="M 49.11264 140.18688 
L 50.437294 43.1424 
L 51.761948 140.18688 
L 727.33536 140.18688 
L 727.33536 140.18688 
" clip-path="url(#pd5d220d7c0)" style="fill: none; stroke: #2563eb; stroke-opacity: 0.35; stroke-width: 1.55; stroke-linecap: square"/>
   </g>
   <g id="line2d_2">
    <path d="M 49.11264 140.18688 
L 54.411255 140.18688 
L 57.060563 55.751267 
L 58.385216 140.18688 
L 727.33536 140.18688 
L 727.33536 140.18688 
" clip-path="url(#pd5d220d7c0)" style="fill: none; stroke: #2563eb; stroke-opacity: 0.388235; stroke-width: 1.55; stroke-linecap: square"/>
   </g>
   <g id="line2d_3">
    <path d="M 49.11264 140.18688 
L 63.683831 140.18688 
L 66.333139 69.234137 
L 68.982446 140.18688 
L 727.33536 140.18688 
L 727.33536 140.18688 
" clip-path="url(#pd5d220d7c0)" style="fill: none; stroke: #2563eb; stroke-opacity: 0.426471; stroke-width: 1.55; stroke-linecap: square"/>
   </g>
   <g id="line2d_4">
    <path d="M 49.11264 140.18688 
L 72.956408 140.18688 
L 75.605715 78.452937 
L 78.255023 140.18688 
L 727.33536 140.18688 
L 727.33536 140.18688 
" clip-path="url(#pd5d220d7c0)" style="fill: none; stroke: #2563eb; stroke-opacity: 0.464706; stroke-width: 1.55; stroke-linecap: square"/>
   </g>
   <g id="line2d_5">
    <path d="M 49.11264 140.18688 
L 86.202945 140.18688 
L 88.852253 88.310753 
L 91.50156 140.18688 
L 727.33536 140.18688 
L 727.33536 140.18688 
" clip-path="url(#pd5d220d7c0)" style="fill: none; stroke: #2563eb; stroke-opacity: 0.502941; stroke-width: 1.55; stroke-linecap: square"/>
   </g>
   <g id="line2d_6">
    <path d="M 49.11264 140.18688 
L 100.774136 140.18688 
L 104.748098 96.59445 
L 108.722059 140.18688 
L 727.33536 140.18688 
L 727.33536 140.18688 
" clip-path="url(#pd5d220d7c0)" style="fill: none; stroke: #2563eb; stroke-opacity: 0.541176; stroke-width: 1.55; stroke-linecap: square"/>
   </g>
   <g id="line2d_7">
    <path d="M 49.11264 140.18688 
L 115.345328 140.18688 
L 119.319289 102.25836 
L 123.29325 140.18688 
L 727.33536 140.18688 
L 727.33536 140.18688 
" clip-path="url(#pd5d220d7c0)" style="fill: none; stroke: #2563eb; stroke-opacity: 0.579412; stroke-width: 1.55; stroke-linecap: square"/>
   </g>
   <g id="line2d_8">
    <path d="M 49.11264 140.18688 
L 136.539787 140.18688 
L 141.838403 108.314872 
L 145.812364 140.18688 
L 727.33536 140.18688 
L 727.33536 140.18688 
" clip-path="url(#pd5d220d7c0)" style="fill: none; stroke: #2563eb; stroke-opacity: 0.617647; stroke-width: 1.55; stroke-linecap: square"/>
   </g>
   <g id="line2d_9">
    <path d="M 49.11264 140.18688 
L 161.708209 140.18688 
L 167.006824 113.404266 
L 172.305439 140.18688 
L 727.33536 140.18688 
L 727.33536 140.18688 
" clip-path="url(#pd5d220d7c0)" style="fill: none; stroke: #2563eb; stroke-opacity: 0.655882; stroke-width: 1.55; stroke-linecap: square"/>
   </g>
   <g id="line2d_10">
    <path d="M 49.11264 140.18688 
L 184.227323 140.18688 
L 190.850591 116.884097 
L 197.47386 140.18688 
L 727.33536 140.18688 
L 727.33536 140.18688 
" clip-path="url(#pd5d220d7c0)" style="fill: none; stroke: #2563eb; stroke-opacity: 0.694118; stroke-width: 1.55; stroke-linecap: square"/>
   </g>
   <g id="line2d_11">
    <path d="M 49.11264 140.18688 
L 218.66832 140.18688 
L 226.616243 120.605138 
L 234.564165 140.18688 
L 727.33536 140.18688 
L 727.33536 140.18688 
" clip-path="url(#pd5d220d7c0)" style="fill: none; stroke: #2563eb; stroke-opacity: 0.732353; stroke-width: 1.55; stroke-linecap: square"/>
   </g>
   <g id="line2d_12">
    <path d="M 49.11264 140.18688 
L 259.732586 140.18688 
L 269.005162 123.731995 
L 278.277739 140.18688 
L 727.33536 140.18688 
L 727.33536 140.18688 
" clip-path="url(#pd5d220d7c0)" style="fill: none; stroke: #2563eb; stroke-opacity: 0.770588; stroke-width: 1.55; stroke-linecap: square"/>
   </g>
   <g id="line2d_13">
    <path d="M 49.11264 140.18688 
L 298.147545 140.18688 
L 307.420121 125.869958 
L 318.017351 140.18688 
L 727.33536 140.18688 
L 727.33536 140.18688 
" clip-path="url(#pd5d220d7c0)" style="fill: none; stroke: #2563eb; stroke-opacity: 0.808824; stroke-width: 1.55; stroke-linecap: square"/>
   </g>
   <g id="line2d_14">
    <path d="M 49.11264 140.18688 
L 352.458349 140.18688 
L 365.704886 128.156116 
L 377.62677 140.18688 
L 727.33536 140.18688 
L 727.33536 140.18688 
" clip-path="url(#pd5d220d7c0)" style="fill: none; stroke: #2563eb; stroke-opacity: 0.847059; stroke-width: 1.55; stroke-linecap: square"/>
   </g>
   <g id="line2d_15">
    <path d="M 49.11264 140.18688 
L 418.691036 140.18688 
L 433.262227 130.077216 
L 449.158073 140.18688 
L 727.33536 140.18688 
L 727.33536 140.18688 
" clip-path="url(#pd5d220d7c0)" style="fill: none; stroke: #2563eb; stroke-opacity: 0.885294; stroke-width: 1.55; stroke-linecap: square"/>
   </g>
   <g id="line2d_16">
    <path d="M 49.11264 140.18688 
L 480.949763 140.18688 
L 498.170261 131.390752 
L 515.39076 140.18688 
L 727.33536 140.18688 
L 727.33536 140.18688 
" clip-path="url(#pd5d220d7c0)" style="fill: none; stroke: #2563eb; stroke-opacity: 0.923529; stroke-width: 1.55; stroke-linecap: square"/>
   </g>
   <g id="line2d_17">
    <path d="M 49.11264 140.18688 
L 571.026218 140.18688 
L 590.896024 132.795337 
L 612.090484 140.18688 
L 727.33536 140.18688 
L 727.33536 140.18688 
" clip-path="url(#pd5d220d7c0)" style="fill: none; stroke: #2563eb; stroke-opacity: 0.961765; stroke-width: 1.55; stroke-linecap: square"/>
   </g>
   <g id="line2d_18">
    <path d="M 49.11264 140.18688 
L 678.323171 140.18688 
L 702.166939 133.975636 
L 727.33536 140.18688 
L 727.33536 140.18688 
" clip-path="url(#pd5d220d7c0)" style="fill: none; stroke: #2563eb; stroke-width: 1.55; stroke-linecap: square"/>
   </g>
   <g id="line2d_19">
    <path d="M 64.3536 301.907006 
L 65.060578 225.010944 
L 65.767556 253.588603 
L 66.474534 291.250941 
L 67.181513 306.993133 
L 67.888491 312.226046 
L 68.595469 312.020849 
L 69.302447 313.85145 
L 70.009425 311.455089 
L 70.716403 311.159105 
L 71.423381 311.101221 
L 72.130359 310.166799 
L 72.837338 312.419838 
L 73.544316 313.24463 
L 74.251294 314.42149 
L 74.958272 313.530571 
L 75.66525 311.832732 
L 76.372228 312.404179 
L 77.079206 313.849418 
L 77.786184 313.152736 
L 79.200141 314.355247 
L 81.321075 314.400889 
L 82.028053 313.898781 
L 82.735031 314.470212 
L 83.442009 314.383837 
L 84.148988 313.238873 
L 84.855966 313.014428 
L 85.562944 313.742187 
L 86.269922 314.294936 
L 86.9769 314.329924 
L 87.683878 314.5424 
L 89.804813 313.794344 
L 90.511791 314.692939 
L 91.218769 314.462496 
L 91.925747 313.576154 
L 92.632725 314.103437 
L 93.339703 314.353878 
L 94.046681 314.38482 
L 94.753659 313.930855 
L 95.460638 314.153291 
L 96.167616 313.714665 
L 96.874594 314.258273 
L 97.581572 314.526465 
L 98.28855 314.397958 
L 98.995528 314.686472 
L 99.702506 314.389123 
L 100.409484 314.221782 
L 101.823441 314.592444 
L 102.530419 314.240473 
L 103.237397 314.075442 
L 103.944375 314.402967 
L 104.651353 314.250304 
L 105.358331 313.678734 
L 106.065309 312.939608 
L 106.772288 313.114301 
L 107.479266 312.751194 
L 108.186244 311.700515 
L 108.893222 311.459555 
L 109.6002 312.002525 
L 110.307178 313.56477 
L 111.014156 312.505946 
L 111.721134 311.985069 
L 112.428113 312.287827 
L 113.135091 312.022392 
L 113.842069 314.481395 
L 114.549047 312.830868 
L 115.256025 313.029453 
L 115.963003 312.123978 
L 116.669981 309.951113 
L 117.376959 311.6781 
L 118.083938 308.464792 
L 118.790916 309.963093 
L 119.497894 300.992325 
L 120.204872 303.603586 
L 120.91185 314.554522 
L 121.618828 309.005176 
L 122.325806 311.073301 
L 123.032784 311.830687 
L 123.739763 306.729748 
L 124.446741 302.808394 
L 125.153719 306.695045 
L 125.860697 311.885795 
L 126.567675 313.197859 
L 127.274653 313.450286 
L 127.981631 314.483527 
L 129.395588 307.010579 
L 130.102566 304.762153 
L 130.809544 308.258707 
L 131.516522 312.493732 
L 132.2235 305.624625 
L 132.930478 300.401382 
L 133.637456 305.528604 
L 134.344434 308.465398 
L 135.051412 306.64647 
L 135.758391 307.952758 
L 136.465369 302.751536 
L 137.172347 300.58628 
L 137.879325 299.54842 
L 138.586303 290.48546 
L 139.293281 286.209179 
L 140.000259 282.891141 
L 140.707237 287.86472 
L 141.414216 303.549069 
L 142.121194 293.375688 
L 142.828172 298.052437 
L 143.53515 299.018379 
L 144.242128 281.779702 
L 144.949106 289.808567 
L 145.656084 301.522534 
L 146.363063 305.679671 
L 147.070041 306.541972 
L 147.777019 303.316845 
L 148.483997 306.376145 
L 149.190975 298.614359 
L 149.897953 300.253558 
L 150.604931 298.113787 
L 151.311909 292.105482 
L 152.018888 292.887313 
L 152.725866 282.191461 
L 153.432844 278.82439 
L 154.139822 280.558007 
L 154.8468 290.897629 
L 155.553778 296.137608 
L 156.260756 290.725602 
L 156.967734 287.334632 
L 157.674712 293.783414 
L 158.381691 302.732444 
L 159.088669 306.780811 
L 159.795647 298.938203 
L 160.502625 296.444367 
L 161.209603 301.680284 
L 161.916581 295.111048 
L 162.623559 295.161615 
L 163.330537 307.953283 
L 164.037516 295.528153 
L 164.744494 296.501293 
L 165.451472 300.263053 
L 166.15845 291.75566 
L 166.865428 302.348491 
L 167.572406 288.742926 
L 168.279384 278.833235 
L 168.986363 303.500053 
L 169.693341 286.893314 
L 170.400319 309.188575 
L 171.107297 300.475973 
L 171.814275 298.764181 
L 172.521253 285.52286 
L 173.228231 275.728646 
L 173.935209 297.271312 
L 174.642188 297.424361 
L 175.349166 305.968571 
L 176.056144 281.76834 
L 176.763122 263.326455 
L 177.4701 294.820064 
L 178.177078 292.419431 
L 178.884056 297.615582 
L 179.591034 304.966369 
L 180.298012 290.469337 
L 181.004991 278.644459 
L 181.711969 280.498201 
L 182.418947 292.12499 
L 183.125925 306.148167 
L 183.832903 301.854574 
L 184.539881 289.40738 
L 185.246859 287.517847 
L 185.953837 308.435832 
L 186.660816 309.879767 
L 187.367794 307.482292 
L 188.074772 294.962441 
L 188.78175 286.327118 
L 189.488728 304.738644 
L 190.195706 312.084149 
L 190.902684 312.368606 
L 192.316641 271.913962 
L 193.023619 275.66369 
L 193.730597 303.159822 
L 194.437575 299.400064 
L 195.144553 301.250963 
L 195.851531 300.257966 
L 196.558509 287.976853 
L 197.265488 286.906117 
L 197.972466 299.092907 
L 198.679444 278.51796 
L 199.386422 271.584046 
L 200.0934 276.695529 
L 200.800378 290.897219 
L 201.507356 299.090315 
L 202.214334 267.001726 
L 202.921312 258.173948 
L 203.628291 290.746439 
L 204.335269 309.594383 
L 205.042247 308.932586 
L 205.749225 295.64467 
L 206.456203 286.903013 
L 207.163181 297.522843 
L 207.870159 295.924111 
L 208.577137 301.613598 
L 209.284116 314.594989 
L 209.991094 295.875711 
L 210.698072 300.251341 
L 211.40505 303.217049 
L 212.112028 293.876396 
L 212.819006 299.219286 
L 213.525984 299.149781 
L 214.232963 306.310284 
L 214.939941 312.024985 
L 217.060875 299.96008 
L 217.767853 299.677279 
L 218.474831 296.451967 
L 219.181809 296.518609 
L 219.888788 299.132365 
L 220.595766 303.206285 
L 221.302744 306.320094 
L 222.009722 296.655949 
L 222.7167 303.829767 
L 223.423678 304.756693 
L 224.130656 301.093291 
L 224.837634 309.588197 
L 225.544612 312.622373 
L 226.251591 311.391843 
L 226.958569 306.022999 
L 227.665547 305.606834 
L 228.372525 307.330061 
L 229.079503 309.727722 
L 229.786481 310.590386 
L 230.493459 304.619081 
L 231.200437 301.271869 
L 231.907416 307.389323 
L 232.614394 310.334854 
L 233.321372 309.371678 
L 234.02835 308.874984 
L 234.735328 310.578604 
L 235.442306 300.603314 
L 236.149284 295.894862 
L 236.856263 303.909662 
L 237.563241 310.643921 
L 238.270219 313.660315 
L 238.977197 310.749037 
L 239.684175 312.027655 
L 240.391153 306.041492 
L 241.098131 302.676396 
L 241.805109 308.406897 
L 242.512088 312.13975 
L 243.219066 309.790753 
L 243.926044 311.345806 
L 244.633022 308.247319 
L 245.34 313.0614 
L 246.046978 307.931625 
L 246.753956 310.002088 
L 247.460934 310.140509 
L 248.167912 306.889748 
L 248.874891 309.00533 
L 249.581869 311.56433 
L 250.288847 308.918213 
L 250.995825 309.122714 
L 252.409781 311.625647 
L 253.116759 311.430403 
L 253.823738 312.147726 
L 254.530716 309.847849 
L 255.237694 310.926938 
L 255.944672 311.738368 
L 256.65165 311.238155 
L 257.358628 312.701634 
L 258.065606 311.351326 
L 258.772584 307.957923 
L 259.479563 309.57891 
L 260.186541 312.263841 
L 260.893519 312.305334 
L 262.307475 309.383544 
L 263.014453 310.353229 
L 263.721431 310.638472 
L 264.428409 312.462683 
L 265.135388 311.744559 
L 265.842366 311.348098 
L 266.549344 313.987436 
L 267.256322 314.464389 
L 267.9633 313.301055 
L 268.670278 312.800784 
L 269.377256 312.103535 
L 270.084234 312.794435 
L 270.791213 309.522317 
L 271.498191 311.54162 
L 272.205169 310.673379 
L 272.912147 310.911109 
L 273.619125 314.082456 
L 274.326103 313.163254 
L 275.033081 313.057064 
L 275.740059 311.277538 
L 276.447038 311.938753 
L 277.154016 313.445502 
L 277.860994 312.196238 
L 278.567972 313.527752 
L 279.27495 313.13181 
L 279.981928 310.480251 
L 280.688906 307.372383 
L 281.395884 307.107275 
L 282.102863 308.713481 
L 282.809841 311.884673 
L 283.516819 312.51946 
L 284.223797 310.734694 
L 284.930775 312.078565 
L 285.637753 312.944786 
L 286.344731 310.930904 
L 287.051709 312.762049 
L 287.758688 309.636863 
L 288.465666 308.934838 
L 289.172644 312.818496 
L 289.879622 313.458547 
L 290.5866 310.287288 
L 291.293578 307.72267 
L 292.000556 307.075186 
L 292.707534 309.240543 
L 293.414513 313.228878 
L 294.121491 312.853809 
L 294.828469 313.463156 
L 295.535447 313.911347 
L 296.242425 314.219215 
L 296.949403 313.904944 
L 297.656381 314.06317 
L 298.363359 314.356199 
L 299.070337 313.639624 
L 299.777316 314.384643 
L 300.484294 313.607364 
L 301.191272 313.452361 
L 301.89825 313.51991 
L 302.605228 314.245725 
L 303.312206 314.375998 
L 304.019184 314.326206 
L 304.726162 313.566628 
L 305.433141 314.304436 
L 306.140119 314.627708 
L 306.847097 314.621504 
L 307.554075 314.441672 
L 308.261053 314.615667 
L 308.968031 314.305496 
L 309.675009 314.256772 
L 310.381988 313.667448 
L 312.502922 314.113557 
L 313.916878 314.229883 
L 314.623856 314.705578 
L 316.037813 314.276211 
L 316.744791 314.088788 
L 317.451769 314.087835 
L 318.158747 314.373492 
L 319.572703 314.414646 
L 320.279681 314.13351 
L 322.400616 314.287751 
L 323.107594 314.715152 
L 325.228528 314.572659 
L 325.935506 314.776537 
L 326.642484 314.503742 
L 327.349463 314.492783 
L 328.056441 314.798459 
L 328.763419 314.618663 
L 330.884353 314.759651 
L 331.591331 314.49531 
L 333.005288 314.451671 
L 333.712266 314.438623 
L 334.419244 314.62174 
L 337.954134 314.639817 
L 339.368091 314.818239 
L 340.075069 314.661771 
L 343.609959 314.591287 
L 345.023916 314.759851 
L 347.14485 314.826316 
L 348.558806 314.803487 
L 349.265784 314.700571 
L 350.679741 314.810242 
L 366.233259 314.828473 
L 369.061172 314.864256 
L 388.856559 314.863275 
L 426.3264 314.863625 
L 426.3264 314.863625 
" clip-path="url(#pd5d220d7c0)" style="fill: none; stroke: #2563eb; stroke-width: 1.5; stroke-linecap: square"/>
   </g>
  </g>
 </g>
 <defs>
  <clipPath id="pd5d220d7c0">
   <rect x="7.2" y="7.2" width="762.048" height="359.424"/>
  </clipPath>
 </defs>
</svg>
